<svg width="117" height="350" viewBox="0 0 117 350" fill="none" xmlns="http://www.w3.org/2000/svg">
<path d="M12.2326 267.11L2.52786 309.026V312.82L3.6178 317.697L9.22605 325.175V329.102L7.68175 330.458L2.52786 337.041L1.34199 340.536V344.275L3.6178 346.957L6.86896 348.502H12.3146L16.6224 347.526L21.6617 345.332L27.4325 341.43L30.8462 340.536L34.9102 336.391L36.4034 334.193V331.948L35.9204 329.102L34.1434 324.825L36.627 318.648L40.2985 293.261V260.738L42.0531 255.983V249.974L61.741 197.385L62.9199 195.099H63.8844L64.7815 195.782L65.9418 200.106L67.1021 219.621L68.1909 228.198L71.749 246.65V257.479L67.688 281.162V324.825L67.1804 325.84V329.732L70.3107 332.947L75.0486 334.977L91.8849 344.791H107.96C109.031 344.058 111.175 342.524 111.175 342.253V337.262L107.96 334.977L98.8225 324.825L95.6075 322.625L98.0888 318.648V268.562L96.4641 263.365L94.9582 259.259V244.064L96.4641 234.481L97.9106 228.198L101.263 199.396L104.417 180.75L106.061 168.668L105.478 154.611L103.839 150.394L99.0755 139.697L97.748 135.715V133.372L98.5289 130.327L100.169 128.687H108.367L110.007 126.501L111.257 122.831V117.053L115.864 102.529V100.655L115.317 92.3779L113.833 68.5623L112.896 64.8923L110.242 61.847L107.291 59.9808L100.006 57.4249L90.2616 52.8642L87.2928 48.9257V44.4813L88.2274 42.5835V38.9551L89.978 35.4961L93.2802 29.8743V12.4318L91.6606 9.05771L89.2762 5.95607L86.7119 3.61544L83.3377 1.5911L80.3357 0.831978H70.5304L67.8734 1.5911L64.5839 3.61544L61.8702 5.95607L59.3333 8.92931L57.611 11.9658L56.9864 14.5165V19.1584L54.9675 20.6079V21.7468L55.6404 25.2152L57.611 29.8743L60.9207 33.8086L61.8702 36.2405V40.8701H57.611V44.4813L53.3517 48.9257L49.9257 49.4813L46.1294 50.0368L41.4998 51.6109L36.8701 53.5554L33.722 55.8702L30.9442 58.185L28.259 61.4258L25.9442 64.8517L24.0923 68.5554L23.0738 73.1665L20.2034 90.4074V103.926H22.2404L23.0738 124.389L27.2405 130.037H33.9998L31.021 134.945V147.28L27.8187 152.884V158.844L25.0611 162.313V173.166L26.1285 176.724V181.972L22.1456 213.868V228.198L22.8023 243.326L16.7686 260.738L12.2326 267.11Z" fill="#333333" stroke="black"/>
</svg>
